<mxfile host="app.diagrams.net" modified="2024-08-19T16:30:54.719Z" agent="Mozilla/5.0 (Windows NT 10.0; Win64; x64) AppleWebKit/537.36 (KHTML, like Gecko) Chrome/127.0.0.0 Safari/537.36 Edg/127.0.0.0" etag="NN_QY1tQlk0SHTdKglFU" version="24.6.4" type="github">
  <diagram name="Pagina-1" id="KRr9i3Vagae0BOu_wHxN">
    <mxGraphModel dx="2853" dy="1143" grid="1" gridSize="10" guides="1" tooltips="1" connect="1" arrows="1" fold="1" page="1" pageScale="1" pageWidth="827" pageHeight="1169" math="0" shadow="0">
      <root>
        <mxCell id="0" />
        <mxCell id="1" parent="0" />
        <mxCell id="eVv_iC_waExLL8OGOxSM-32" style="edgeStyle=orthogonalEdgeStyle;rounded=0;orthogonalLoop=1;jettySize=auto;html=1;exitX=0;exitY=0.25;exitDx=0;exitDy=0;entryX=1;entryY=0;entryDx=0;entryDy=0;" edge="1" parent="1" source="eVv_iC_waExLL8OGOxSM-1" target="eVv_iC_waExLL8OGOxSM-31">
          <mxGeometry relative="1" as="geometry">
            <Array as="points">
              <mxPoint x="294" y="190" />
            </Array>
          </mxGeometry>
        </mxCell>
        <mxCell id="eVv_iC_waExLL8OGOxSM-1" value="Utente" style="whiteSpace=wrap;html=1;align=center;" vertex="1" parent="1">
          <mxGeometry x="330" y="180" width="100" height="40" as="geometry" />
        </mxCell>
        <mxCell id="eVv_iC_waExLL8OGOxSM-26" style="edgeStyle=orthogonalEdgeStyle;rounded=0;orthogonalLoop=1;jettySize=auto;html=1;exitX=1;exitY=0.5;exitDx=0;exitDy=0;entryX=0.5;entryY=1;entryDx=0;entryDy=0;endArrow=none;endFill=0;" edge="1" parent="1" source="eVv_iC_waExLL8OGOxSM-2" target="eVv_iC_waExLL8OGOxSM-24">
          <mxGeometry relative="1" as="geometry" />
        </mxCell>
        <mxCell id="eVv_iC_waExLL8OGOxSM-2" value="&lt;div&gt;&lt;span style=&quot;background-color: initial;&quot;&gt;Prodotti&lt;/span&gt;&lt;br&gt;&lt;/div&gt;" style="whiteSpace=wrap;html=1;align=center;" vertex="1" parent="1">
          <mxGeometry x="330" y="620" width="100" height="40" as="geometry" />
        </mxCell>
        <mxCell id="eVv_iC_waExLL8OGOxSM-3" value="" style="shape=flexArrow;endArrow=classic;rounded=0;html=1;" edge="1" parent="1">
          <mxGeometry width="50" height="50" relative="1" as="geometry">
            <mxPoint x="380" y="280" as="sourcePoint" />
            <mxPoint x="380" y="220" as="targetPoint" />
          </mxGeometry>
        </mxCell>
        <mxCell id="eVv_iC_waExLL8OGOxSM-8" style="edgeStyle=orthogonalEdgeStyle;rounded=0;orthogonalLoop=1;jettySize=auto;html=1;exitX=0.5;exitY=0;exitDx=0;exitDy=0;endArrow=none;endFill=0;" edge="1" parent="1" source="eVv_iC_waExLL8OGOxSM-5">
          <mxGeometry relative="1" as="geometry">
            <mxPoint x="240" y="280" as="targetPoint" />
          </mxGeometry>
        </mxCell>
        <mxCell id="eVv_iC_waExLL8OGOxSM-15" style="edgeStyle=orthogonalEdgeStyle;rounded=0;orthogonalLoop=1;jettySize=auto;html=1;exitX=0.25;exitY=1;exitDx=0;exitDy=0;entryX=0.5;entryY=0;entryDx=0;entryDy=0;endArrow=none;endFill=0;" edge="1" parent="1" source="eVv_iC_waExLL8OGOxSM-5" target="eVv_iC_waExLL8OGOxSM-11">
          <mxGeometry relative="1" as="geometry" />
        </mxCell>
        <mxCell id="eVv_iC_waExLL8OGOxSM-16" style="edgeStyle=orthogonalEdgeStyle;rounded=0;orthogonalLoop=1;jettySize=auto;html=1;exitX=0.75;exitY=1;exitDx=0;exitDy=0;entryX=0.5;entryY=0;entryDx=0;entryDy=0;endArrow=none;endFill=0;" edge="1" parent="1" source="eVv_iC_waExLL8OGOxSM-5" target="eVv_iC_waExLL8OGOxSM-12">
          <mxGeometry relative="1" as="geometry" />
        </mxCell>
        <mxCell id="eVv_iC_waExLL8OGOxSM-5" value="Clienti" style="whiteSpace=wrap;html=1;align=center;" vertex="1" parent="1">
          <mxGeometry x="190" y="320" width="100" height="40" as="geometry" />
        </mxCell>
        <mxCell id="eVv_iC_waExLL8OGOxSM-9" style="edgeStyle=orthogonalEdgeStyle;rounded=0;orthogonalLoop=1;jettySize=auto;html=1;exitX=0.5;exitY=0;exitDx=0;exitDy=0;endArrow=none;endFill=0;" edge="1" parent="1" source="eVv_iC_waExLL8OGOxSM-6">
          <mxGeometry relative="1" as="geometry">
            <mxPoint x="520" y="280" as="targetPoint" />
          </mxGeometry>
        </mxCell>
        <mxCell id="eVv_iC_waExLL8OGOxSM-17" style="edgeStyle=orthogonalEdgeStyle;rounded=0;orthogonalLoop=1;jettySize=auto;html=1;exitX=0.25;exitY=1;exitDx=0;exitDy=0;entryX=0.5;entryY=0;entryDx=0;entryDy=0;endArrow=none;endFill=0;" edge="1" parent="1" source="eVv_iC_waExLL8OGOxSM-6" target="eVv_iC_waExLL8OGOxSM-13">
          <mxGeometry relative="1" as="geometry" />
        </mxCell>
        <mxCell id="eVv_iC_waExLL8OGOxSM-18" style="edgeStyle=orthogonalEdgeStyle;rounded=0;orthogonalLoop=1;jettySize=auto;html=1;exitX=0.75;exitY=1;exitDx=0;exitDy=0;entryX=0.5;entryY=0;entryDx=0;entryDy=0;endArrow=none;endFill=0;" edge="1" parent="1" source="eVv_iC_waExLL8OGOxSM-6" target="eVv_iC_waExLL8OGOxSM-14">
          <mxGeometry relative="1" as="geometry" />
        </mxCell>
        <mxCell id="eVv_iC_waExLL8OGOxSM-27" style="edgeStyle=orthogonalEdgeStyle;rounded=0;orthogonalLoop=1;jettySize=auto;html=1;exitX=1;exitY=0.5;exitDx=0;exitDy=0;entryX=0.5;entryY=0;entryDx=0;entryDy=0;endArrow=none;endFill=0;" edge="1" parent="1" source="eVv_iC_waExLL8OGOxSM-6" target="eVv_iC_waExLL8OGOxSM-24">
          <mxGeometry relative="1" as="geometry" />
        </mxCell>
        <mxCell id="eVv_iC_waExLL8OGOxSM-6" value="Admin" style="whiteSpace=wrap;html=1;align=center;" vertex="1" parent="1">
          <mxGeometry x="470" y="320" width="100" height="40" as="geometry" />
        </mxCell>
        <mxCell id="eVv_iC_waExLL8OGOxSM-7" value="" style="endArrow=none;html=1;rounded=0;" edge="1" parent="1">
          <mxGeometry width="50" height="50" relative="1" as="geometry">
            <mxPoint x="240" y="280" as="sourcePoint" />
            <mxPoint x="520" y="280" as="targetPoint" />
          </mxGeometry>
        </mxCell>
        <mxCell id="eVv_iC_waExLL8OGOxSM-11" value="Carrello" style="shape=rhombus;perimeter=rhombusPerimeter;whiteSpace=wrap;html=1;align=center;" vertex="1" parent="1">
          <mxGeometry x="100" y="420" width="120" height="60" as="geometry" />
        </mxCell>
        <mxCell id="eVv_iC_waExLL8OGOxSM-12" value="Ordine" style="shape=rhombus;perimeter=rhombusPerimeter;whiteSpace=wrap;html=1;align=center;" vertex="1" parent="1">
          <mxGeometry x="230" y="420" width="120" height="60" as="geometry" />
        </mxCell>
        <mxCell id="eVv_iC_waExLL8OGOxSM-13" value="Aggiungi" style="shape=rhombus;perimeter=rhombusPerimeter;whiteSpace=wrap;html=1;align=center;" vertex="1" parent="1">
          <mxGeometry x="400" y="420" width="120" height="60" as="geometry" />
        </mxCell>
        <mxCell id="eVv_iC_waExLL8OGOxSM-14" value="Modifica" style="shape=rhombus;perimeter=rhombusPerimeter;whiteSpace=wrap;html=1;align=center;" vertex="1" parent="1">
          <mxGeometry x="540" y="420" width="120" height="60" as="geometry" />
        </mxCell>
        <mxCell id="eVv_iC_waExLL8OGOxSM-19" style="edgeStyle=orthogonalEdgeStyle;rounded=0;orthogonalLoop=1;jettySize=auto;html=1;exitX=0.5;exitY=1;exitDx=0;exitDy=0;entryX=0.18;entryY=-0.05;entryDx=0;entryDy=0;entryPerimeter=0;endArrow=none;endFill=0;" edge="1" parent="1" source="eVv_iC_waExLL8OGOxSM-11" target="eVv_iC_waExLL8OGOxSM-2">
          <mxGeometry relative="1" as="geometry" />
        </mxCell>
        <mxCell id="eVv_iC_waExLL8OGOxSM-20" style="edgeStyle=orthogonalEdgeStyle;rounded=0;orthogonalLoop=1;jettySize=auto;html=1;exitX=0.5;exitY=1;exitDx=0;exitDy=0;entryX=0.38;entryY=-0.05;entryDx=0;entryDy=0;entryPerimeter=0;endArrow=none;endFill=0;" edge="1" parent="1" source="eVv_iC_waExLL8OGOxSM-12" target="eVv_iC_waExLL8OGOxSM-2">
          <mxGeometry relative="1" as="geometry">
            <Array as="points">
              <mxPoint x="290" y="520" />
              <mxPoint x="368" y="520" />
            </Array>
          </mxGeometry>
        </mxCell>
        <mxCell id="eVv_iC_waExLL8OGOxSM-21" style="edgeStyle=orthogonalEdgeStyle;rounded=0;orthogonalLoop=1;jettySize=auto;html=1;exitX=0.5;exitY=1;exitDx=0;exitDy=0;entryX=0.61;entryY=-0.025;entryDx=0;entryDy=0;entryPerimeter=0;endArrow=none;endFill=0;" edge="1" parent="1" source="eVv_iC_waExLL8OGOxSM-13" target="eVv_iC_waExLL8OGOxSM-2">
          <mxGeometry relative="1" as="geometry">
            <Array as="points">
              <mxPoint x="460" y="520" />
              <mxPoint x="391" y="520" />
            </Array>
          </mxGeometry>
        </mxCell>
        <mxCell id="eVv_iC_waExLL8OGOxSM-22" style="edgeStyle=orthogonalEdgeStyle;rounded=0;orthogonalLoop=1;jettySize=auto;html=1;exitX=0.5;exitY=1;exitDx=0;exitDy=0;entryX=0.82;entryY=0.05;entryDx=0;entryDy=0;entryPerimeter=0;endArrow=none;endFill=0;" edge="1" parent="1" source="eVv_iC_waExLL8OGOxSM-14" target="eVv_iC_waExLL8OGOxSM-2">
          <mxGeometry relative="1" as="geometry" />
        </mxCell>
        <mxCell id="eVv_iC_waExLL8OGOxSM-23" value="(0,N)" style="text;html=1;align=center;verticalAlign=middle;resizable=0;points=[];autosize=1;strokeColor=none;fillColor=none;" vertex="1" parent="1">
          <mxGeometry x="155" y="388" width="50" height="30" as="geometry" />
        </mxCell>
        <mxCell id="eVv_iC_waExLL8OGOxSM-24" value="Elimina" style="shape=rhombus;perimeter=rhombusPerimeter;whiteSpace=wrap;html=1;align=center;" vertex="1" parent="1">
          <mxGeometry x="670" y="420" width="120" height="60" as="geometry" />
        </mxCell>
        <mxCell id="eVv_iC_waExLL8OGOxSM-28" value="(0,N)" style="text;html=1;align=center;verticalAlign=middle;resizable=0;points=[];autosize=1;strokeColor=none;fillColor=none;" vertex="1" parent="1">
          <mxGeometry x="155" y="518" width="50" height="30" as="geometry" />
        </mxCell>
        <mxCell id="eVv_iC_waExLL8OGOxSM-29" value="(1,N)" style="text;html=1;align=center;verticalAlign=middle;resizable=0;points=[];autosize=1;strokeColor=none;fillColor=none;" vertex="1" parent="1">
          <mxGeometry x="290" y="390" width="50" height="30" as="geometry" />
        </mxCell>
        <mxCell id="eVv_iC_waExLL8OGOxSM-30" value="(1,N)" style="text;html=1;align=center;verticalAlign=middle;resizable=0;points=[];autosize=1;strokeColor=none;fillColor=none;" vertex="1" parent="1">
          <mxGeometry x="290" y="488" width="50" height="30" as="geometry" />
        </mxCell>
        <mxCell id="eVv_iC_waExLL8OGOxSM-31" value="ID" style="ellipse;whiteSpace=wrap;html=1;align=right;fontStyle=4;labelBackgroundColor=none;labelPosition=left;verticalLabelPosition=middle;verticalAlign=middle;fillColor=#000000;" vertex="1" parent="1">
          <mxGeometry x="285" y="180" width="10" height="10" as="geometry" />
        </mxCell>
        <mxCell id="eVv_iC_waExLL8OGOxSM-33" value="Utenti(&lt;b&gt;ID, nome, cognome, email, password, indirizzo di residenza, indirizzo di spedizione*, ...)&amp;nbsp;&lt;/b&gt;" style="text;html=1;align=center;verticalAlign=middle;resizable=0;points=[];autosize=1;strokeColor=none;fillColor=none;" vertex="1" parent="1">
          <mxGeometry x="50" y="28" width="560" height="30" as="geometry" />
        </mxCell>
        <mxCell id="eVv_iC_waExLL8OGOxSM-34" value="Prodotti(ID, nome_prodotto, descrizione, quantità, prezzo ... )&amp;nbsp;&amp;nbsp;" style="text;html=1;align=center;verticalAlign=middle;resizable=0;points=[];autosize=1;strokeColor=none;fillColor=none;" vertex="1" parent="1">
          <mxGeometry x="30" y="80" width="360" height="30" as="geometry" />
        </mxCell>
        <mxCell id="eVv_iC_waExLL8OGOxSM-39" value="Carrello(ID, Cliente, codice_prodotto, quantità_previste, prezzo)" style="text;html=1;align=center;verticalAlign=middle;resizable=0;points=[];autosize=1;strokeColor=none;fillColor=none;" vertex="1" parent="1">
          <mxGeometry x="20" y="50" width="360" height="30" as="geometry" />
        </mxCell>
        <mxCell id="eVv_iC_waExLL8OGOxSM-43" style="edgeStyle=orthogonalEdgeStyle;rounded=0;orthogonalLoop=1;jettySize=auto;html=1;exitX=0.5;exitY=1;exitDx=0;exitDy=0;entryX=0;entryY=0.5;entryDx=0;entryDy=0;endArrow=none;endFill=0;" edge="1" parent="1" source="eVv_iC_waExLL8OGOxSM-47" target="eVv_iC_waExLL8OGOxSM-2">
          <mxGeometry relative="1" as="geometry">
            <mxPoint x="70" y="560" as="sourcePoint" />
          </mxGeometry>
        </mxCell>
        <mxCell id="eVv_iC_waExLL8OGOxSM-48" style="edgeStyle=orthogonalEdgeStyle;rounded=0;orthogonalLoop=1;jettySize=auto;html=1;exitX=0.5;exitY=0;exitDx=0;exitDy=0;entryX=0;entryY=0.5;entryDx=0;entryDy=0;endArrow=none;endFill=0;" edge="1" parent="1" source="eVv_iC_waExLL8OGOxSM-47" target="eVv_iC_waExLL8OGOxSM-5">
          <mxGeometry relative="1" as="geometry" />
        </mxCell>
        <mxCell id="eVv_iC_waExLL8OGOxSM-47" value="lista_desideri" style="shape=rhombus;perimeter=rhombusPerimeter;whiteSpace=wrap;html=1;align=center;" vertex="1" parent="1">
          <mxGeometry x="-30" y="420" width="120" height="60" as="geometry" />
        </mxCell>
        <mxCell id="eVv_iC_waExLL8OGOxSM-49" value="(0,N)" style="text;html=1;align=center;verticalAlign=middle;resizable=0;points=[];autosize=1;strokeColor=none;fillColor=none;" vertex="1" parent="1">
          <mxGeometry x="30" y="388" width="50" height="30" as="geometry" />
        </mxCell>
        <mxCell id="eVv_iC_waExLL8OGOxSM-50" value="(0,N)" style="text;html=1;align=center;verticalAlign=middle;resizable=0;points=[];autosize=1;strokeColor=none;fillColor=none;" vertex="1" parent="1">
          <mxGeometry x="30" y="480" width="50" height="30" as="geometry" />
        </mxCell>
      </root>
    </mxGraphModel>
  </diagram>
</mxfile>
